PathFileType	4	(X/Y/Z)	C:\Users\86182\Documents\cortex\Trimmed_M4_L2.trc
DataRate	CameraRate	NumFrames	NumMarkers	Units	OrigDataRate	OrigDataStartFrame	OrigNumFrames
100.00	100.00	      70	2	mm	100.00	368	      1101
Frame#	Time	gripper			box			
		X1	Y1	Z1	X2	Y2	Z2	

368	3.670	276.22855	151.25697	292.53613	276.70471	149.46725	156.50920	
369	3.680	276.23297	151.25841	292.53995	276.69180	149.48036	156.52054	
370	3.690	276.23712	151.25974	292.54361	276.68777	149.48526	156.52943	
371	3.700	276.24017	151.26070	292.54639	276.69269	149.48174	156.53419	
372	3.710	276.24179	151.26118	292.54791	276.70337	149.47205	156.53467	
373	3.720	276.24203	151.26123	292.54828	276.71478	149.45979	156.53185	
374	3.730	276.24124	151.26096	292.54773	276.72226	149.44862	156.52713	
375	3.740	276.23990	151.26048	292.54669	276.72281	149.44128	156.52179	
376	3.750	276.23859	151.26006	292.54565	276.71600	149.43893	156.51671	
377	3.760	276.23782	151.25980	292.54504	276.70401	149.44069	156.51210	
378	3.770	276.23795	151.25984	292.54514	276.69101	149.44389	156.50760	
379	3.780	276.23871	151.26010	292.54578	276.68158	149.44524	156.50255	
380	3.790	276.23969	151.26042	292.54654	276.67899	149.44218	156.49646	
381	3.800	276.24033	151.26064	292.54706	276.68417	149.43382	156.48912	
382	3.810	276.24039	151.26065	292.54712	276.69553	149.42130	156.48096	
383	3.820	276.23984	151.26048	292.54663	276.70944	149.40744	156.47299	
384	3.830	276.23886	151.26016	292.54584	276.72226	149.39531	156.46626	
385	3.840	276.23758	151.25974	292.54480	276.73145	149.38681	156.46146	
386	3.850	276.23615	151.25925	292.54358	276.73590	149.38237	156.45895	
387	3.860	276.23462	151.25874	292.54236	276.73587	149.38130	156.45871	
388	3.870	276.23312	151.25826	292.54114	276.73279	149.38232	156.46017	
389	3.880	276.23172	151.25778	292.53998	276.72900	149.38391	156.46239	
390	3.890	276.23047	151.25737	292.53894	276.72678	149.38486	156.46434	
391	3.900	276.22949	151.25703	292.53812	276.72702	149.38519	156.46555	
392	3.910	276.22876	151.25679	292.53751	276.72864	149.38617	156.46638	
393	3.920	276.22821	151.25661	292.53705	276.72983	149.38959	156.46768	
394	3.930	276.22787	151.25650	292.53677	276.72949	149.39684	156.47014	
395	3.940	276.22791	151.25652	292.53680	276.72720	149.40831	156.47406	
396	3.950	276.22830	151.25665	292.53714	276.72287	149.42311	156.47940	
397	3.960	276.22873	151.25679	292.53748	276.71689	149.43890	156.48564	
398	3.970	276.22885	151.25682	292.53760	276.71054	149.45258	156.49199	
399	3.980	276.22858	151.25673	292.53735	276.70596	149.46161	156.49776	
400	3.990	276.22812	151.25658	292.53696	276.70508	149.46518	156.50246	
401	4.000	276.22797	151.25653	292.53687	276.70840	149.46432	156.50613	
402	4.010	276.22852	151.25671	292.53729	276.71439	149.46138	156.50922	
403	4.020	276.22974	151.25711	292.53830	276.72052	149.45865	156.51199	
404	4.030	276.23117	151.25760	292.53949	276.72433	149.45767	156.51437	
405	4.040	276.23233	151.25798	292.54044	276.72415	149.45903	156.51584	
406	4.050	276.23291	151.25816	292.54092	276.71927	149.46236	156.51582	
407	4.060	276.23285	151.25815	292.54089	276.71054	149.46646	156.51404	
408	4.070	276.23236	151.25800	292.54047	276.69977	149.47037	156.51076	
409	4.080	276.23184	151.25781	292.54004	276.68842	149.47412	156.50694	
410	4.090	276.23172	151.25778	292.53995	276.67737	149.47856	156.50372	
411	4.100	276.23221	151.25795	292.54034	276.66730	149.48419	156.50197	
412	4.110	276.23334	151.25832	292.54126	276.65860	149.49068	156.50208	
413	4.120	276.23486	151.25882	292.54254	276.65106	149.49724	156.50400	
414	4.130	276.23657	151.25938	292.54395	276.64401	149.50307	156.50732	
415	4.140	276.23822	151.25995	292.54532	276.63730	149.50714	156.51125	
416	4.150	276.23947	151.26036	292.54636	276.63171	149.50850	156.51479	
417	4.160	276.24002	151.26053	292.54678	276.62854	149.50664	156.51733	
418	4.170	276.23975	151.26044	292.54657	276.62866	149.50186	156.51874	
419	4.180	276.23892	151.26016	292.54587	276.63245	149.49512	156.51938	
420	4.190	276.23801	151.25987	292.54514	276.63953	149.48759	156.51985	
421	4.200	276.23749	151.25970	292.54471	276.64893	149.48047	156.52057	
422	4.210	276.23749	151.25970	292.54468	276.65952	149.47437	156.52136	
423	4.220	276.23767	151.25975	292.54483	276.67053	149.46899	156.52153	
424	4.230	276.23755	151.25972	292.54474	276.68182	149.46326	156.52011	
425	4.240	276.23685	151.25949	292.54419	276.69333	149.45636	156.51669	
426	4.250	276.23563	151.25908	292.54315	276.70425	149.44864	156.51169	
427	4.260	276.23428	151.25862	292.54205	276.71329	149.44138	156.50632	
428	4.270	276.23328	151.25829	292.54126	276.71927	149.43591	156.50188	
429	4.280	276.23291	151.25816	292.54095	276.72192	149.43288	156.49925	
430	4.290	276.23309	151.25821	292.54114	276.72192	149.43233	156.49869	
431	4.300	276.23340	151.25832	292.54138	276.72018	149.43405	156.49997	
432	4.310	276.23352	151.25836	292.54144	276.71713	149.43788	156.50249	
433	4.320	276.23322	151.25827	292.54114	276.71231	149.44363	156.50539	
434	4.330	276.23239	151.25803	292.54034	276.70486	149.45097	156.50763	
435	4.340	276.23087	151.25755	292.53894	276.69464	149.45886	156.50827	
436	4.350	276.22867	151.25688	292.53687	276.68301	149.46541	156.50684	
437	4.360	276.22614	151.25610	292.53445	276.67224	149.46906	156.50348	
